<svg width="175" height="52" viewBox="0 0 175 52" fill="none" xmlns="http://www.w3.org/2000/svg">
<rect y="0.5" width="175" height="51" rx="25.5" fill="#05B093"/>
<path d="M33.776 31.756C32.208 31.756 30.9547 31.2387 30.016 30.204L31.296 28.972C31.648 29.3027 32.0053 29.5533 32.368 29.724C32.7413 29.8947 33.1573 29.98 33.616 29.98C34.2453 29.98 34.7307 29.8307 35.072 29.532C35.424 29.2227 35.6 28.7907 35.6 28.236C35.6 27.692 35.424 27.2707 35.072 26.972C34.72 26.6733 34.2027 26.524 33.52 26.524H32.368L32.656 24.796H33.552C34.1067 24.796 34.5387 24.668 34.848 24.412C35.1573 24.1453 35.312 23.7773 35.312 23.308C35.312 22.892 35.184 22.556 34.928 22.3C34.6827 22.044 34.2987 21.916 33.776 21.916C32.9867 21.916 32.2133 22.2253 31.456 22.844L30.336 21.612C31.3813 20.652 32.624 20.172 34.064 20.172C34.8213 20.172 35.4773 20.3 36.032 20.556C36.5867 20.8013 37.008 21.1427 37.296 21.58C37.5947 22.0173 37.744 22.5133 37.744 23.068C37.744 23.7187 37.536 24.2627 37.12 24.7C36.7147 25.1373 36.1227 25.4413 35.344 25.612C36.1867 25.708 36.8533 25.9853 37.344 26.444C37.8347 26.9027 38.08 27.5373 38.08 28.348C38.08 29.0307 37.8987 29.6333 37.536 30.156C37.1733 30.668 36.6667 31.0627 36.016 31.34C35.3653 31.6173 34.6187 31.756 33.776 31.756ZM46.1781 29.148C46.1781 29.4787 46.2261 29.724 46.3221 29.884C46.4181 30.0333 46.5781 30.1453 46.8021 30.22L46.3221 31.724C45.8208 31.6813 45.4101 31.564 45.0901 31.372C44.7808 31.18 44.5408 30.8813 44.3701 30.476C43.8155 31.3293 42.9675 31.756 41.8261 31.756C40.9835 31.756 40.3115 31.516 39.8101 31.036C39.3195 30.5453 39.0741 29.9107 39.0741 29.132C39.0741 28.204 39.4101 27.4947 40.0821 27.004C40.7541 26.5133 41.7195 26.268 42.9781 26.268H43.9541V25.852C43.9541 25.3293 43.8368 24.9667 43.6021 24.764C43.3675 24.5613 42.9781 24.46 42.4341 24.46C41.8368 24.46 41.0901 24.6093 40.1941 24.908L39.6821 23.388C40.7381 22.972 41.7835 22.764 42.8181 22.764C43.9701 22.764 44.8181 23.0147 45.3621 23.516C45.9061 24.0067 46.1781 24.7427 46.1781 25.724V29.148ZM42.4501 30.124C43.0901 30.124 43.5915 29.8093 43.9541 29.18V27.564H43.2021C41.9755 27.564 41.3621 28.0227 41.3621 28.94C41.3621 29.3133 41.4528 29.6067 41.6341 29.82C41.8261 30.0227 42.0981 30.124 42.4501 30.124ZM55.7601 23.02L53.4241 26.956L55.9841 31.5H53.5361L51.5681 27.788H50.7201V31.5H48.4481V23.02H50.7201V26.348H51.6161L53.5201 23.02H55.7601ZM63.35 29.148C63.35 29.4787 63.398 29.724 63.494 29.884C63.59 30.0333 63.75 30.1453 63.974 30.22L63.494 31.724C62.9927 31.6813 62.582 31.564 62.262 31.372C61.9527 31.18 61.7127 30.8813 61.542 30.476C60.9873 31.3293 60.1393 31.756 58.998 31.756C58.1553 31.756 57.4833 31.516 56.982 31.036C56.4913 30.5453 56.246 29.9107 56.246 29.132C56.246 28.204 56.582 27.4947 57.254 27.004C57.926 26.5133 58.8913 26.268 60.15 26.268H61.126V25.852C61.126 25.3293 61.0087 24.9667 60.774 24.764C60.5393 24.5613 60.15 24.46 59.606 24.46C59.0087 24.46 58.262 24.6093 57.366 24.908L56.854 23.388C57.91 22.972 58.9553 22.764 59.99 22.764C61.142 22.764 61.99 23.0147 62.534 23.516C63.078 24.0067 63.35 24.7427 63.35 25.724V29.148ZM59.622 30.124C60.262 30.124 60.7633 29.8093 61.126 29.18V27.564H60.374C59.1473 27.564 58.534 28.0227 58.534 28.94C58.534 29.3133 58.6247 29.6067 58.806 29.82C58.998 30.0227 59.27 30.124 59.622 30.124ZM68.18 22.764C69.0973 22.764 69.8653 22.9773 70.484 23.404C71.1133 23.82 71.428 24.3853 71.428 25.1C71.428 25.58 71.2787 25.9747 70.98 26.284C70.6813 26.5933 70.2227 26.8227 69.604 26.972C70.3613 27.0893 70.9267 27.3133 71.3 27.644C71.6733 27.964 71.86 28.428 71.86 29.036C71.86 29.9213 71.5027 30.5987 70.788 31.068C70.084 31.5267 69.156 31.756 68.004 31.756C66.6493 31.756 65.5133 31.4093 64.596 30.716L65.684 29.436C66.068 29.6813 66.4253 29.8573 66.756 29.964C67.0973 30.06 67.4867 30.108 67.924 30.108C68.9693 30.108 69.492 29.7187 69.492 28.94C69.492 28.5667 69.348 28.3 69.06 28.14C68.7827 27.9693 68.3773 27.884 67.844 27.884H66.564L66.708 26.364H67.668C68.1267 26.364 68.484 26.2787 68.74 26.108C68.996 25.9267 69.124 25.66 69.124 25.308C69.124 24.988 69.0067 24.7533 68.772 24.604C68.548 24.444 68.244 24.364 67.86 24.364C67.476 24.364 67.1347 24.4173 66.836 24.524C66.548 24.62 66.244 24.7693 65.924 24.972L64.868 23.74C65.3373 23.4093 65.8387 23.164 66.372 23.004C66.9053 22.844 67.508 22.764 68.18 22.764ZM79.9125 29.148C79.9125 29.4787 79.9605 29.724 80.0565 29.884C80.1525 30.0333 80.3125 30.1453 80.5365 30.22L80.0565 31.724C79.5552 31.6813 79.1445 31.564 78.8245 31.372C78.5152 31.18 78.2752 30.8813 78.1045 30.476C77.5498 31.3293 76.7018 31.756 75.5605 31.756C74.7178 31.756 74.0458 31.516 73.5445 31.036C73.0538 30.5453 72.8085 29.9107 72.8085 29.132C72.8085 28.204 73.1445 27.4947 73.8165 27.004C74.4885 26.5133 75.4538 26.268 76.7125 26.268H77.6885V25.852C77.6885 25.3293 77.5712 24.9667 77.3365 24.764C77.1018 24.5613 76.7125 24.46 76.1685 24.46C75.5712 24.46 74.8245 24.6093 73.9285 24.908L73.4165 23.388C74.4725 22.972 75.5178 22.764 76.5525 22.764C77.7045 22.764 78.5525 23.0147 79.0965 23.516C79.6405 24.0067 79.9125 24.7427 79.9125 25.724V29.148ZM76.1845 30.124C76.8245 30.124 77.3258 29.8093 77.6885 29.18V27.564H76.9365C75.7098 27.564 75.0965 28.0227 75.0965 28.94C75.0965 29.3133 75.1872 29.6067 75.3685 29.82C75.5605 30.0227 75.8325 30.124 76.1845 30.124ZM88.302 23.02L88.014 24.732H85.614V31.5H83.342V24.732H80.798V23.02H88.302ZM92.3307 25.676C93.6748 25.676 94.6561 25.9267 95.2748 26.428C95.9041 26.9187 96.2188 27.6387 96.2188 28.588C96.2188 29.5373 95.8881 30.2627 95.2268 30.764C94.5761 31.2547 93.7281 31.5 92.6828 31.5H89.3388V23.02H91.6108V25.676H92.3307ZM92.4588 29.964C93.4081 29.964 93.8828 29.4947 93.8828 28.556C93.8828 28.0867 93.7654 27.74 93.5308 27.516C93.2961 27.292 92.8908 27.18 92.3148 27.18H91.6108V29.964H92.4588ZM105.877 23.596C106.485 23.596 107.029 23.7507 107.509 24.06C107.989 24.3693 108.367 24.8227 108.645 25.42C108.922 26.0067 109.061 26.7053 109.061 27.516C109.061 28.3907 108.895 29.148 108.565 29.788C108.234 30.4173 107.77 30.9027 107.173 31.244C106.575 31.5853 105.882 31.756 105.093 31.756C103.855 31.756 102.874 31.3453 102.149 30.524C101.434 29.692 101.077 28.4387 101.077 26.764C101.077 25.5373 101.178 24.5293 101.381 23.74C101.583 22.9507 101.93 22.3053 102.421 21.804C102.922 21.292 103.621 20.892 104.517 20.604C105.167 20.4013 105.679 20.22 106.053 20.06C106.437 19.8893 106.853 19.6653 107.301 19.388L108.149 20.876C107.775 21.1107 107.381 21.324 106.965 21.516C106.549 21.708 106.042 21.8947 105.445 22.076C104.965 22.236 104.581 22.4227 104.293 22.636C104.015 22.8387 103.791 23.1267 103.621 23.5C103.461 23.8627 103.349 24.3587 103.285 24.988C103.903 24.06 104.767 23.596 105.877 23.596ZM105.077 30.06C105.578 30.06 105.973 29.8787 106.261 29.516C106.549 29.1427 106.693 28.5027 106.693 27.596C106.693 26.7533 106.57 26.1613 106.325 25.82C106.09 25.468 105.738 25.292 105.269 25.292C104.906 25.292 104.565 25.3933 104.245 25.596C103.925 25.788 103.658 26.0813 103.445 26.476V27.548C103.445 28.38 103.589 29.0093 103.877 29.436C104.165 29.852 104.565 30.06 105.077 30.06ZM118.04 31.5H115.864V28.284C115.864 27.676 115.896 27.1 115.96 26.556C116.024 26.012 116.093 25.58 116.168 25.26L113.16 31.5H110.792V23.02H112.968V26.268C112.968 26.844 112.936 27.4147 112.872 27.98C112.819 28.5347 112.755 28.9613 112.68 29.26L115.64 23.02H118.04V31.5ZM127.188 23.02V31.5H124.916V24.716H123.044L122.868 26.78C122.762 27.996 122.628 28.908 122.468 29.516C122.319 30.1133 122.058 30.5827 121.684 30.924C121.322 31.2547 120.767 31.5107 120.02 31.692L119.476 30.028C119.828 29.8787 120.079 29.7133 120.228 29.532C120.378 29.34 120.484 29.0467 120.548 28.652C120.623 28.2573 120.692 27.5853 120.756 26.636L121.028 23.02H127.188ZM136.601 27.068C136.601 27.1747 136.585 27.468 136.553 27.948H131.257C131.331 28.716 131.539 29.26 131.881 29.58C132.222 29.9 132.686 30.06 133.273 30.06C133.635 30.06 133.977 30.0013 134.297 29.884C134.617 29.7667 134.963 29.58 135.337 29.324L136.281 30.604C135.331 31.372 134.259 31.756 133.065 31.756C131.731 31.756 130.707 31.356 129.993 30.556C129.278 29.756 128.921 28.6733 128.921 27.308C128.921 26.444 129.07 25.6707 129.368 24.988C129.678 24.2947 130.121 23.7507 130.697 23.356C131.283 22.9613 131.977 22.764 132.777 22.764C133.982 22.764 134.921 23.1427 135.593 23.9C136.265 24.6573 136.601 25.7133 136.601 27.068ZM134.345 26.428C134.345 25.02 133.838 24.316 132.825 24.316C132.355 24.316 131.987 24.492 131.721 24.844C131.465 25.1853 131.31 25.7453 131.257 26.524H134.345V26.428ZM144.271 23.02L143.983 24.732H141.583V31.5H139.311V24.732H136.767V23.02H144.271Z" fill="white"/>
</svg>
